<svg xmlns="http://www.w3.org/2000/svg" viewBox="0 0 202.98 60.1">
  <title id="intf-logo-title">Interfolio</title>
  <desc id="intf-logo-desc">The logo for Interfolio; a lowercase letter i superimposed on a blue circle on the left with the word "interfolio" in lowercase sans-serif text to the right in mid gray. Below it on the right are the words "from Elsevier" in orange.</desc>
  <defs><style>.color-circle{fill:#4193c2}.superimposed-i{fill:#fff}.interfolio{fill:#333}.from-elsevier{fill:#f58220}</style></defs>
  <circle class="color-circle" cx="24.07" cy="24.07" r="24.07"/>
  <circle class="superimposed-i" cx="24.03" cy="11.5" r="4.64"/>
  <path class="superimposed-i" d="M29.39 40.79V26.78c0-4.92-3.34-7.6-7.54-7.6-2.35 0-4.55 1.09-5.98 2.95.34-.36.82-.57 1.31-.57 1.17 0 2.6 1.14 2.6 4.74v6.1c-.01 6.03 6.11 8.39 9.62 8.39Z"/>
  <path class="interfolio" d="M60.04 12.94V9.48h1.88v3.46h-1.88Zm0 23.93V17.38h1.88v19.51h-1.88v-.02ZM83.75 36.87h-1.88V26c0-2.52-.35-4.36-1.07-5.52s-1.84-1.72-3.4-1.72c-.85 0-1.68.16-2.45.45-.82.31-1.59.73-2.26 1.27-.7.55-1.33 1.2-1.84 1.93-.53.73-.92 1.53-1.17 2.38v12.08h-1.87V17.38h1.77v4.65c.39-.74.89-1.43 1.49-2.04.58-.61 1.25-1.14 1.98-1.58s1.52-.77 2.35-1.01c.83-.23 1.69-.36 2.55-.35 2.13 0 3.63.74 4.49 2.23.88 1.49 1.31 3.62 1.31 6.39v11.19ZM97.17 35.94c-.1.04-.26.15-.51.28a4.8 4.8 0 0 1-.9.39c-.39.13-.8.25-1.21.34-.48.1-.96.15-1.46.15s-1.01-.07-1.49-.22c-.45-.15-.86-.36-1.21-.67-.35-.31-.63-.67-.83-1.09-.2-.47-.31-.98-.29-1.5V18.93h-2.74V17.4h2.74v-6.68h1.87v6.68h4.54v1.53h-4.54v14.25c0 .73.25 1.27.74 1.63.5.36 1.08.55 1.69.54.69 0 1.37-.12 2.01-.39.55-.26.9-.44 1.04-.51l.55 1.5ZM108.28 37.25c-1.31 0-2.63-.26-3.82-.8-1.17-.53-2.2-1.27-3.06-2.22s-1.55-2.04-2.01-3.24c-.5-1.25-.74-2.6-.73-3.94-.01-1.33.23-2.64.73-3.88.47-1.18 1.15-2.26 2.01-3.18.85-.92 1.88-1.65 3.02-2.16a9.496 9.496 0 0 1 7.59.01c1.15.51 2.19 1.25 3.05 2.17.86.93 1.53 2.01 1.98 3.2.48 1.23.71 2.54.7 3.85v.47c.01.12 0 .23-.04.35h-17.1a8.86 8.86 0 0 0 2.5 5.63c.69.7 1.49 1.25 2.38 1.65.9.41 1.9.61 2.89.6.67 0 1.34-.09 1.98-.28a8.09 8.09 0 0 0 1.82-.77c.55-.32 1.07-.71 1.5-1.18.42-.45.77-.96 1.04-1.52l1.65.44c-.28.71-.7 1.37-1.21 1.93-.55.6-1.18 1.11-1.88 1.52-.73.44-1.52.77-2.35.99-.85.25-1.74.36-2.63.36h-.01Zm7.65-10.87a8.782 8.782 0 0 0-.77-3.15 8.01 8.01 0 0 0-1.69-2.45 7.34 7.34 0 0 0-2.38-1.6 7.52 7.52 0 0 0-5.78 0c-.89.38-1.69.92-2.38 1.6a7.8 7.8 0 0 0-1.65 2.48c-.42.99-.67 2.06-.73 3.14h15.38v-.02ZM130.32 19.06a7.8 7.8 0 0 0-4.6 1.56c-1.31.99-2.23 2.35-2.76 4.07v12.18h-1.88V17.38h1.79v4.8a9.555 9.555 0 0 1 2.68-3.36 6.956 6.956 0 0 1 3.57-1.49c.25-.03.47-.03.67-.03h.48l.03 1.75h.02ZM136.26 36.87V18.91h-2.74v-1.53h2.74v-.64c0-2.39.48-4.28 1.46-5.6.98-1.34 2.32-2.01 4.06-2.01.74 0 1.47.12 2.17.34.63.19 1.21.5 1.72.9l-.67 1.36c-.39-.29-.83-.53-1.3-.67-.51-.18-1.05-.26-1.59-.26-1.27 0-2.26.51-2.95 1.52s-1.04 2.48-1.02 4.41v.67h5.54v1.55h-5.54v17.96h-1.88v-.04ZM153.77 37.25a9.27 9.27 0 0 1-3.81-.8 9.637 9.637 0 0 1-3.02-2.19 9.903 9.903 0 0 1-1.98-3.22 10.62 10.62 0 0 1-.71-3.87c0-2.64.96-5.18 2.74-7.13.85-.92 1.88-1.66 3.02-2.19a8.74 8.74 0 0 1 3.76-.8c1.3-.01 2.58.26 3.75.8 1.14.53 2.16 1.27 3.02 2.19.88.93 1.56 2.03 2.01 3.22 1.47 3.75.7 8.01-2.01 10.99-.85.92-1.88 1.66-3.02 2.19-1.17.55-2.45.82-3.75.82Zm-7.66-10.01c0 1.11.19 2.22.6 3.24.38.98.93 1.87 1.63 2.64.69.74 1.5 1.36 2.42 1.78 1.88.88 4.04.88 5.92 0 .92-.44 1.75-1.05 2.44-1.82a8.785 8.785 0 0 0 2.25-5.96c0-1.11-.19-2.2-.6-3.24-.38-.98-.93-1.88-1.65-2.67a7.99 7.99 0 0 0-2.42-1.82c-.92-.45-1.93-.69-2.95-.67-1.02 0-2.04.22-2.96.67s-1.74 1.07-2.42 1.84c-.7.8-1.27 1.72-1.65 2.71a9.691 9.691 0 0 0-.61 3.31ZM167.19 9.5h1.91v23.52c0 .73.2 1.3.61 1.72s.98.64 1.71.64c.34 0 .67-.03.99-.09.36-.06.73-.15 1.07-.28l.38 1.5c-.51.2-1.04.35-1.58.44-.53.1-1.07.16-1.6.18-1.05 0-1.9-.32-2.52-.96-.64-.64-.96-1.49-.96-2.57V9.5h-.01ZM177.51 12.94V9.48h1.87v3.46h-1.87Zm0 23.93V17.38h1.87v19.51h-1.87v-.02ZM193.44 37.25a9.27 9.27 0 0 1-3.81-.8 9.637 9.637 0 0 1-3.02-2.19 9.903 9.903 0 0 1-1.98-3.22 10.62 10.62 0 0 1-.71-3.87c0-2.64.96-5.18 2.74-7.12.85-.92 1.88-1.66 3.02-2.19a8.74 8.74 0 0 1 3.76-.8c1.3-.01 2.57.26 3.75.8 1.14.53 2.16 1.27 3.02 2.19.88.93 1.56 2.03 2.03 3.21 1.49 3.75.7 8.01-2 10.99-.85.92-1.88 1.66-3.02 2.19-1.18.55-2.47.83-3.78.82Zm-7.65-10.01c0 1.11.19 2.22.6 3.24.38.98.93 1.87 1.63 2.64.69.74 1.5 1.36 2.42 1.78 1.88.88 4.04.88 5.92 0 .92-.44 1.75-1.05 2.44-1.82a8.785 8.785 0 0 0 2.25-5.96c0-1.11-.2-2.2-.6-3.24-.38-.98-.93-1.88-1.65-2.67a7.99 7.99 0 0 0-2.42-1.82c-.92-.45-1.93-.69-2.95-.67-1.02 0-2.04.22-2.96.67s-1.74 1.07-2.42 1.84c-.7.8-1.27 1.72-1.65 2.71a9.236 9.236 0 0 0-.61 3.31Z"/>
  <path class="from-elsevier" d="m65.68 44.97-.18 1.22c-.39-.25-1.08-.53-1.77-.53-.9 0-1.63.34-1.77.46-.16.14-.62.87-.62 2.69v.6H64v1.03h-2.66v9.37h-1.31v-9.37h-1.91v-1.03h1.91v-.73c0-3.03 1.31-4.13 3.45-4.13 1.54 0 2.2.44 2.2.44v-.02ZM72 50.59l-.99.41c0-.16-.07-.85-.96-.85-1.1 0-2.07 1.63-2.43 2.57v7.07h-1.31v-7.56c0-.8-.02-1.49-.09-2.02l-.09-.83h1.17l.28 1.61c.41-.9 1.4-1.86 2.62-1.86.67 0 1.13.14 1.42.41.39.37.39 1.03.39 1.03v.02ZM77.6 60.08c-2.99 0-4.59-2.39-4.59-5.47 0-3.28 1.68-5.49 4.85-5.49s4.62 2.09 4.62 5.49-1.86 5.47-4.87 5.47Zm.02-9.81c-.92 0-1.75.39-2 .62-.23.21-1.17 1.36-1.17 3.51 0 3.67 1.91 4.52 3.38 4.52.83 0 1.7-.34 2-.62.25-.25 1.19-1.36 1.19-3.54 0-2.3-.67-4.5-3.4-4.5ZM99.98 59.8h-1.31s.09-2.41.07-4.5c0 0 0-1.65-.02-2.66-.05-1.58-.23-2.39-2-2.39-.55 0-1.29.21-1.45.28-.28.11-1.42 1.17-1.95 1.84v7.44h-1.31v-7.44c0-1.4-.41-2.11-1.98-2.11-.55 0-1.29.21-1.45.28-.28.11-1.42 1.17-1.95 1.84v7.44h-1.31v-7.51c0-.83-.02-1.54-.09-2.07l-.09-.83h1.17l.28 1.54c.9-1.03 1.95-1.81 3.61-1.81 1.56 0 2.69.41 3.05 1.95.9-1.1 2.02-1.95 3.63-1.95 1.72 0 2.89.6 3.08 2.73.09 1.03.07 2.07.07 3.1 0 1.72-.05 4.85-.05 4.85v-.02ZM109.51 58.61h6.34v1.19h-7.69V45.93h7.46v1.19h-6.11v5.01h5.31v1.19h-5.31v5.28ZM118.68 44.81h1.31v15h-1.31v-15ZM126.15 60.1c-1.08 0-2.25-.25-3.01-.73l.21-1.31c.71.44 1.4.92 2.66.92 1.61 0 2.39-.8 2.39-1.79 0-2.3-5.19-2.18-5.19-5.21 0-1.56 1.13-2.85 3.49-2.85 1.29 0 2.09.34 2.76.67l-.18 1.31c-.8-.69-1.86-.85-2.55-.85-1.31 0-2.2.6-2.2 1.58 0 2.27 5.19 2.09 5.19 5.21 0 1.54-1.08 3.05-3.56 3.05h-.01ZM133.11 54.27v.34c0 2.66 1.42 4.34 3.67 4.34 1.22 0 2.64-.51 3.26-1.01l.14 1.15c-.87.55-1.86.99-3.72.99-2.62 0-4.69-1.93-4.69-5.44s1.86-5.51 4.41-5.51c3.01 0 3.95 1.61 3.95 5.14h-7.03.01Zm5.88-1.03c-.07-2.48-1.06-2.99-2.92-2.99-.48 0-1.26.21-1.38.32-.21.14-1.24 1.13-1.52 2.66h5.82ZM141.63 49.4h1.4l3.24 8.34 2.96-8.34h1.31l-3.88 10.4h-.9l-4.13-10.4ZM153.51 47.13c-.48 0-.92-.53-.92-1.06s.41-1.03.92-1.03.94.53.94 1.01c0 .55-.46 1.08-.94 1.08Zm-.64 2.27h1.31v10.4h-1.31V49.4ZM158.36 54.27v.34c0 2.66 1.42 4.34 3.67 4.34 1.22 0 2.64-.51 3.26-1.01l.14 1.15c-.87.55-1.86.99-3.72.99-2.62 0-4.69-1.93-4.69-5.44s1.86-5.51 4.41-5.51c3.01 0 3.95 1.61 3.95 5.14h-7.03.01Zm5.88-1.03c-.07-2.48-1.06-2.99-2.92-2.99-.48 0-1.26.21-1.38.32-.21.14-1.24 1.13-1.52 2.66h5.82ZM173.93 50.59l-.99.41c0-.16-.07-.85-.96-.85-1.1 0-2.07 1.63-2.43 2.57v7.07h-1.31v-7.56c0-.8-.02-1.49-.09-2.02l-.09-.83h1.17l.28 1.61c.41-.9 1.4-1.86 2.62-1.86.67 0 1.13.14 1.42.41.39.37.39 1.03.39 1.03v.02Z"/>
</svg>
